<svg width="20" height="20" viewBox="0 0 20 20" fill="none" xmlns="http://www.w3.org/2000/svg">
<path d="M7.65546 2.59842C7.71671 2.46719 7.9033 2.46719 7.96455 2.59842L8.78693 4.36055C9.29516 5.44952 10.1705 6.32485 11.2595 6.83308L13.0216 7.65547C13.1528 7.71671 13.1528 7.90331 13.0216 7.96455L11.2595 8.78694C10.1705 9.29517 9.29516 10.1705 8.78693 11.2595L7.96455 13.0216C7.9033 13.1528 7.71671 13.1528 7.65546 13.0216L6.83307 11.2595C6.32485 10.1705 5.44952 9.29517 4.36054 8.78694L2.59842 7.96455C2.46719 7.90331 2.46719 7.71671 2.59842 7.65547L4.36055 6.83308C5.44952 6.32485 6.32485 5.44952 6.83308 4.36055L7.65546 2.59842Z" stroke="#FB6514" stroke-width="1.5" stroke-linejoin="round"/>
<path d="M14.1282 10.9601C14.1588 10.8945 14.2521 10.8945 14.2827 10.9601L14.6352 11.7153C15.0587 12.6228 15.7881 13.3522 16.6956 13.7757L17.4508 14.1282C17.5164 14.1588 17.5164 14.2521 17.4508 14.2827L16.6956 14.6352C15.7881 15.0587 15.0587 15.7881 14.6352 16.6956L14.2827 17.4508C14.2521 17.5164 14.1588 17.5164 14.1282 17.4508L13.7757 16.6956C13.3522 15.7881 12.6228 15.0587 11.7153 14.6352L10.9601 14.2827C10.8945 14.2521 10.8945 14.1588 10.9601 14.1282L11.7153 13.7757C12.6228 13.3522 13.3522 12.6228 13.7757 11.7153L14.1282 10.9601Z" stroke="#FB6514" stroke-width="1.5" stroke-linejoin="round"/>
</svg>
