<svg width="44" height="44" viewBox="0 0 44 44" fill="none" xmlns="http://www.w3.org/2000/svg">
<g filter="url(#filter0_ii_7156_622)">
<g clip-path="url(#clip0_7156_622)">
<rect width="44" height="44" rx="8" fill="#309C7A"/>
<g style="mix-blend-mode:multiply">
<path d="M0 0H11V11H0V0Z" fill="#EAECF0"/>
<path d="M0 0C3.03757 0 5.5 2.46243 5.5 5.5C5.5 8.53757 3.03757 11 0 11V5.5V0Z" fill="#F2F4F7"/>
<path d="M11 0H22V11H11V0Z" fill="#F9FAFB"/>
<path d="M11 11C11 7.96243 13.4624 5.5 16.5 5.5C19.5376 5.5 22 7.96243 22 11H16.5H11Z" fill="#F2F4F7"/>
<path d="M0 11H11V22H0V11Z" fill="#F2F4F7"/>
<path d="M11 22H5.5V11H11V22Z" fill="#F2F4F7"/>
<path d="M11 11H22V22H11V11Z" fill="#EAECF0"/>
<path d="M11 22C11 18.9624 13.4624 16.5 16.5 16.5C19.5376 16.5 22 18.9624 22 22H16.5H11Z" fill="#FCFCFD"/>
<path d="M0 22H22V44H0V22Z" fill="#F2F4F7"/>
<path d="M22 22C22 28.0751 17.0751 33 11 33C4.92487 33 0 28.0751 0 22H11H22Z" fill="#F9FAFB"/>
<path d="M22 0H44V22H22V0Z" fill="#F2F4F7"/>
<path d="M44 22H33V0L44 0V22Z" fill="#EAECF0"/>
<path d="M22 22H33V33H22V22Z" fill="#F2F4F7"/>
<path d="M22 22H27.5V33H22V22Z" fill="#F9FAFB"/>
<path d="M33 22H44V33H33V22Z" fill="#EAECF0"/>
<path d="M44 22V27.5H33V22H44Z" fill="#FCFCFD"/>
<path d="M22 33H33V44H22V33Z" fill="#EAECF0"/>
<path d="M22 44V38.5H33V44H22Z" fill="#F2F4F7"/>
<path d="M33 33H44V44H33V33Z" fill="#EAECF0"/>
<path d="M44 44C40.9624 44 38.5 41.5376 38.5 38.5C38.5 35.4624 40.9624 33 44 33V38.5V44Z" fill="#FCFCFD"/>
<path d="M0 0H22V22H0V0Z" fill="#FCFCFD"/>
<path d="M22 22H11V0L22 0V22Z" fill="#F2F4F7"/>
<path d="M0 22H22V44H0V22Z" fill="#F2F4F7"/>
<path d="M22 0H33V11H22V0Z" fill="#F2F4F7"/>
<path d="M33 0H44V11H33V0Z" fill="#F9FAFB"/>
<path d="M22 11H33V22H22V11Z" fill="#F2F4F7"/>
<path d="M22 22V11L33 22H22Z" fill="#F2F4F7"/>
<path d="M33 11H44V22H33V11Z" fill="#EAECF0"/>
<path d="M33 22V16.5H44V22H33Z" fill="#FCFCFD"/>
<path d="M22 22H33V33H22V22Z" fill="#FCFCFD"/>
<path d="M33 22V33L22 22H33Z" fill="#EAECF0"/>
<path d="M33 22H44V33H33V22Z" fill="#EAECF0"/>
<path d="M44 33H33L44 22V33Z" fill="#F9FAFB"/>
<path d="M22 33H33V44H22V33Z" fill="#F2F4F7"/>
<path d="M33 33V44L22 33H33Z" fill="#FCFCFD"/>
<path d="M33 33H44V44H33V33Z" fill="#F2F4F7"/>
<path d="M33 33C36.0376 33 38.5 35.4624 38.5 38.5C38.5 41.5376 36.0376 44 33 44V38.5V33Z" fill="#F9FAFB"/>
<path d="M0 0H11V11H0V0Z" fill="#F2F4F7"/>
<path d="M0 11C0 7.96243 2.46243 5.5 5.5 5.5C8.53757 5.5 11 7.96243 11 11H5.5H0Z" fill="#F2F4F7"/>
<path d="M11 0H22V11H11V0Z" fill="#F9FAFB"/>
<path d="M11 0C14.0376 0 16.5 2.46243 16.5 5.5C16.5 8.53757 14.0376 11 11 11V5.5V0Z" fill="#EAECF0"/>
<path d="M0 11H11V22H0V11Z" fill="#F9FAFB"/>
<path d="M0 11H11L0 22V11Z" fill="#EAECF0"/>
<path d="M11 11H22V22H11V11Z" fill="#EAECF0"/>
<path d="M0 22H22V44H0V22Z" fill="#F9FAFB"/>
<path d="M0 44V33H22V44H0Z" fill="#F2F4F7"/>
<path d="M22 0H44V22H22V0Z" fill="#F2F4F7"/>
<path d="M44 0V11H22V0L44 0Z" fill="#F9FAFB"/>
<path d="M22 22H44V44H22V22Z" fill="#EAECF0"/>
<path d="M22 44V33H44V44H22Z" fill="#EAECF0"/>
<path d="M0 0H11V11H0V0Z" fill="#FCFCFD"/>
<path d="M11 11H5.5V0L11 0V11Z" fill="#F9FAFB"/>
<path d="M11 0H22V11H11V0Z" fill="#FCFCFD"/>
<path d="M11 0H16.5V11H11V0Z" fill="#EAECF0"/>
<path d="M0 11H11V22H0V11Z" fill="#FCFCFD"/>
<path d="M11 11H22V22H11V11Z" fill="#EAECF0"/>
<path d="M22 22H16.5V11H22V22Z" fill="#FCFCFD"/>
<path d="M0 22H22V44H0V22Z" fill="#F9FAFB"/>
<path d="M22 22C22 28.0751 17.0751 33 11 33C4.92487 33 0 28.0751 0 22H11H22Z" fill="#F2F4F7"/>
<path d="M22 0H33V11H22V0Z" fill="#F2F4F7"/>
<path d="M33 11H22L33 0V11Z" fill="#FCFCFD"/>
<path d="M33 0H44V11H33V0Z" fill="#F2F4F7"/>
<path d="M33 0C36.0376 0 38.5 2.46243 38.5 5.5C38.5 8.53757 36.0376 11 33 11V5.5V0Z" fill="#F2F4F7"/>
<path d="M22 11H33V22H22V11Z" fill="#F2F4F7"/>
<path d="M22 11H33L22 22V11Z" fill="#FCFCFD"/>
<path d="M33 11H44V22H33V11Z" fill="#F2F4F7"/>
<path d="M22 22H44V44H22V22Z" fill="#F2F4F7"/>
<path d="M0 0H11V11H0V0Z" fill="#EAECF0"/>
<path d="M0 11V0L11 11H0Z" fill="#F2F4F7"/>
<path d="M11 0H22V11H11V0Z" fill="#F2F4F7"/>
<path d="M0 11H11V22H0V11Z" fill="#FCFCFD"/>
<path d="M11 11C11 14.0376 8.53757 16.5 5.5 16.5C2.46243 16.5 0 14.0376 0 11H5.5H11Z" fill="#EAECF0"/>
<path d="M11 11H22V22H11V11Z" fill="#EAECF0"/>
<path d="M0 22H22V44H0V22Z" fill="#F9FAFB"/>
<path d="M0 44V22L22 44H0Z" fill="#F2F4F7"/>
<path d="M22 0H33V11H22V0Z" fill="#F2F4F7"/>
<path d="M33 0H44V11H33V0Z" fill="#F2F4F7"/>
<path d="M22 11H33V22H22V11Z" fill="#F9FAFB"/>
<path d="M33 11V22L22 11H33Z" fill="#EAECF0"/>
<path d="M33 11H44V22H33V11Z" fill="#EAECF0"/>
<path d="M33 11H44L33 22V11Z" fill="#EAECF0"/>
<path d="M22 22H33V33H22V22Z" fill="#EAECF0"/>
<path d="M33 22V27.5H22V22H33Z" fill="#F9FAFB"/>
<path d="M33 22H44V33H33V22Z" fill="#EAECF0"/>
<path d="M33 22H38.5V33H33V22Z" fill="#F2F4F7"/>
<path d="M22 33H33V44H22V33Z" fill="#EAECF0"/>
<path d="M22 33H27.5V44H22V33Z" fill="#F2F4F7"/>
<path d="M33 33H44V44H33V33Z" fill="#F9FAFB"/>
<path d="M33 33C36.0376 33 38.5 35.4624 38.5 38.5C38.5 41.5376 36.0376 44 33 44V38.5V33Z" fill="#EAECF0"/>
<path d="M0 0H22V22H0V0Z" fill="#F2F4F7"/>
<path d="M0 0H11V22H0V0Z" fill="#EAECF0"/>
<path d="M0 22H11V33H0V22Z" fill="#EAECF0"/>
<path d="M0 33V27.5H11V33H0Z" fill="#F9FAFB"/>
<path d="M11 22H22V33H11V22Z" fill="#F2F4F7"/>
<path d="M22 33C18.9624 33 16.5 30.5376 16.5 27.5C16.5 24.4624 18.9624 22 22 22V27.5V33Z" fill="#EAECF0"/>
<path d="M0 33H11V44H0V33Z" fill="#F2F4F7"/>
<path d="M0 33H5.5V44H0V33Z" fill="#F9FAFB"/>
<path d="M11 33H22V44H11V33Z" fill="#F2F4F7"/>
<path d="M22 33V44L11 33H22Z" fill="#F9FAFB"/>
<path d="M22 0H44V22H22V0Z" fill="#EAECF0"/>
<path d="M22 22H44V44H22V22Z" fill="#F2F4F7"/>
<path d="M22 44V33H44V44H22Z" fill="#EAECF0"/>
<path d="M0 0H11V11H0V0Z" fill="#EAECF0"/>
<path d="M11 11C7.96243 11 5.5 8.53757 5.5 5.5C5.5 2.46243 7.96243 0 11 0V5.5V11Z" fill="#F2F4F7"/>
<path d="M11 0H22V11H11V0Z" fill="#FCFCFD"/>
<path d="M11 0H22L11 11V0Z" fill="#F2F4F7"/>
<path d="M0 11H11V22H0V11Z" fill="#FCFCFD"/>
<path d="M11 11V22L0 11H11Z" fill="#EAECF0"/>
<path d="M11 11H22V22H11V11Z" fill="#F9FAFB"/>
<path d="M22 22H16.5V11H22V22Z" fill="#EAECF0"/>
<path d="M0 22H11V33H0V22Z" fill="#F9FAFB"/>
<path d="M11 33H5.5V22H11V33Z" fill="#F2F4F7"/>
<path d="M11 22H22V33H11V22Z" fill="#F2F4F7"/>
<path d="M22 33C18.9624 33 16.5 30.5376 16.5 27.5C16.5 24.4624 18.9624 22 22 22V27.5V33Z" fill="#EAECF0"/>
<path d="M0 33H11V44H0V33Z" fill="#F2F4F7"/>
<path d="M11 44H0L11 33V44Z" fill="#FCFCFD"/>
<path d="M11 33H22V44H11V33Z" fill="#F9FAFB"/>
<path d="M22 33V38.5H11V33H22Z" fill="#F2F4F7"/>
<path d="M22 0H44V22H22V0Z" fill="#F9FAFB"/>
<path d="M44 0C44 6.07513 39.0751 11 33 11C26.9249 11 22 6.07513 22 0L33 0L44 0Z" fill="#F2F4F7"/>
<path d="M22 22H33V33H22V22Z" fill="#F2F4F7"/>
<path d="M22 33V27.5H33V33H22Z" fill="#F9FAFB"/>
<path d="M33 22H44V33H33V22Z" fill="#F2F4F7"/>
<path d="M33 33V22L44 33H33Z" fill="#F2F4F7"/>
<path d="M22 33H33V44H22V33Z" fill="#F2F4F7"/>
<path d="M33 33H44V44H33V33Z" fill="#EAECF0"/>
<path d="M44 44H38.5V33H44V44Z" fill="#F2F4F7"/>
</g>
<g filter="url(#filter1_i_7156_622)">
<path fill-rule="evenodd" clip-rule="evenodd" d="M17.8451 12.2443C18.0269 12.0867 18.2594 12 18.5 12H26C26.5523 12 27 12.4477 27 13V17H30C30.2652 17 30.5196 17.1054 30.7071 17.2929L33.7071 20.2929C33.8946 20.4804 34 20.7348 34 21V26C34 26.5523 33.5523 27 33 27H31.6632C31.8792 27.4546 32 27.9632 32 28.5C32 30.433 30.433 32 28.5 32C26.567 32 25 30.433 25 28.5C25 27.9632 25.1208 27.4546 25.3368 27H18.6632C18.8792 27.4546 19 27.9632 19 28.5C19 30.433 17.433 32 15.5 32C13.567 32 12 30.433 12 28.5C12 27.9632 12.1208 27.4546 12.3368 27H11C10.4477 27 10 26.5523 10 26V19.5C10 19.21 10.1259 18.9343 10.3451 18.7443L17.8451 12.2443ZM25 25V14H18.873L12 19.9566V25H25ZM27 25V19H29.5858L32 21.4142V25H27ZM15.5 27C14.6716 27 14 27.6716 14 28.5C14 29.3284 14.6716 30 15.5 30C16.3284 30 17 29.3284 17 28.5C17 27.6716 16.3284 27 15.5 27ZM28.5 27C27.6716 27 27 27.6716 27 28.5C27 29.3284 27.6716 30 28.5 30C29.3284 30 30 29.3284 30 28.5C30 27.6716 29.3284 27 28.5 27Z" fill="white"/>
</g>
</g>
</g>
<defs>
<filter id="filter0_ii_7156_622" x="0" y="-1" width="44" height="46" filterUnits="userSpaceOnUse" color-interpolation-filters="sRGB">
<feFlood flood-opacity="0" result="BackgroundImageFix"/>
<feBlend mode="normal" in="SourceGraphic" in2="BackgroundImageFix" result="shape"/>
<feColorMatrix in="SourceAlpha" type="matrix" values="0 0 0 0 0 0 0 0 0 0 0 0 0 0 0 0 0 0 127 0" result="hardAlpha"/>
<feOffset dy="-1"/>
<feGaussianBlur stdDeviation="1"/>
<feComposite in2="hardAlpha" operator="arithmetic" k2="-1" k3="1"/>
<feColorMatrix type="matrix" values="0 0 0 0 0 0 0 0 0 0 0 0 0 0 0 0 0 0 0.25 0"/>
<feBlend mode="normal" in2="shape" result="effect1_innerShadow_7156_622"/>
<feColorMatrix in="SourceAlpha" type="matrix" values="0 0 0 0 0 0 0 0 0 0 0 0 0 0 0 0 0 0 127 0" result="hardAlpha"/>
<feOffset dy="1"/>
<feGaussianBlur stdDeviation="1.5"/>
<feComposite in2="hardAlpha" operator="arithmetic" k2="-1" k3="1"/>
<feColorMatrix type="matrix" values="0 0 0 0 1 0 0 0 0 1 0 0 0 0 1 0 0 0 0.25 0"/>
<feBlend mode="normal" in2="effect1_innerShadow_7156_622" result="effect2_innerShadow_7156_622"/>
</filter>
<filter id="filter1_i_7156_622" x="10" y="12" width="24" height="20" filterUnits="userSpaceOnUse" color-interpolation-filters="sRGB">
<feFlood flood-opacity="0" result="BackgroundImageFix"/>
<feBlend mode="normal" in="SourceGraphic" in2="BackgroundImageFix" result="shape"/>
<feColorMatrix in="SourceAlpha" type="matrix" values="0 0 0 0 0 0 0 0 0 0 0 0 0 0 0 0 0 0 127 0" result="hardAlpha"/>
<feOffset/>
<feGaussianBlur stdDeviation="0.5"/>
<feComposite in2="hardAlpha" operator="arithmetic" k2="-1" k3="1"/>
<feColorMatrix type="matrix" values="0 0 0 0 0 0 0 0 0 0 0 0 0 0 0 0 0 0 0.12 0"/>
<feBlend mode="normal" in2="shape" result="effect1_innerShadow_7156_622"/>
</filter>
<clipPath id="clip0_7156_622">
<rect width="44" height="44" rx="8" fill="white"/>
</clipPath>
</defs>
</svg>
