<svg width="45" height="44" viewBox="0 0 45 44" fill="none" xmlns="http://www.w3.org/2000/svg">
<g filter="url(#filter0_ii_7156_2267)">
<rect x="0.666664" width="44" height="44" rx="8" fill="#2E90FA"/>
<g style="mix-blend-mode:multiply">
<path d="M1 0H11.75V11H1V0Z" fill="#EAECF0"/>
<path d="M1 0C3.96853 0 6.375 2.46243 6.375 5.5C6.375 8.53757 3.96853 11 1 11V5.5V0Z" fill="#F2F4F7"/>
<path d="M11.75 0H22.5V11H11.75V0Z" fill="#F9FAFB"/>
<path d="M11.75 11C11.75 7.96243 14.1565 5.5 17.125 5.5C20.0935 5.5 22.5 7.96243 22.5 11H17.125H11.75Z" fill="#F2F4F7"/>
<path d="M1 11H11.75V22H1V11Z" fill="#F2F4F7"/>
<path d="M11.75 22H6.375V11H11.75V22Z" fill="#F2F4F7"/>
<path d="M11.75 11H22.5V22H11.75V11Z" fill="#EAECF0"/>
<path d="M11.75 22C11.75 18.9624 14.1565 16.5 17.125 16.5C20.0935 16.5 22.5 18.9624 22.5 22H17.125H11.75Z" fill="#FCFCFD"/>
<path d="M1 22H22.5V44H1V22Z" fill="#F2F4F7"/>
<path d="M22.5 22C22.5 28.0751 17.6871 33 11.75 33C5.81294 33 1 28.0751 1 22H11.75H22.5Z" fill="#F9FAFB"/>
<path d="M22.5 0H44V22H22.5V0Z" fill="#F2F4F7"/>
<path d="M44 22H33.25V0L44 0V22Z" fill="#EAECF0"/>
<path d="M22.5 22H33.25V33H22.5V22Z" fill="#F2F4F7"/>
<path d="M22.5 22H27.875V33H22.5V22Z" fill="#F9FAFB"/>
<path d="M33.25 22H44V33H33.25V22Z" fill="#EAECF0"/>
<path d="M44 22V27.5H33.25V22H44Z" fill="#FCFCFD"/>
<path d="M22.5 33H33.25V44H22.5V33Z" fill="#EAECF0"/>
<path d="M22.5 44V38.5H33.25V44H22.5Z" fill="#F2F4F7"/>
<path d="M33.25 33H44V44H33.25V33Z" fill="#EAECF0"/>
<path d="M44 44C41.0315 44 38.625 41.5376 38.625 38.5C38.625 35.4624 41.0315 33 44 33V38.5V44Z" fill="#FCFCFD"/>
<path d="M1 0H22.5V22H1V0Z" fill="#FCFCFD"/>
<path d="M22.5 22H11.75V0L22.5 0V22Z" fill="#F2F4F7"/>
<path d="M1 22H22.5V44H1V22Z" fill="#F2F4F7"/>
<path d="M22.5 0H33.25V11H22.5V0Z" fill="#F2F4F7"/>
<path d="M33.25 0H44V11H33.25V0Z" fill="#F9FAFB"/>
<path d="M22.5 11H33.25V22H22.5V11Z" fill="#F2F4F7"/>
<path d="M22.5 22V11L33.25 22H22.5Z" fill="#F2F4F7"/>
<path d="M33.25 11H44V22H33.25V11Z" fill="#EAECF0"/>
<path d="M33.25 22V16.5H44V22H33.25Z" fill="#FCFCFD"/>
<path d="M22.5 22H33.25V33H22.5V22Z" fill="#FCFCFD"/>
<path d="M33.25 22V33L22.5 22H33.25Z" fill="#EAECF0"/>
<path d="M33.25 22H44V33H33.25V22Z" fill="#EAECF0"/>
<path d="M44 33H33.25L44 22V33Z" fill="#F9FAFB"/>
<path d="M22.5 33H33.25V44H22.5V33Z" fill="#F2F4F7"/>
<path d="M33.25 33V44L22.5 33H33.25Z" fill="#FCFCFD"/>
<path d="M33.25 33H44V44H33.25V33Z" fill="#F2F4F7"/>
<path d="M33.25 33C36.2185 33 38.625 35.4624 38.625 38.5C38.625 41.5376 36.2185 44 33.25 44V38.5V33Z" fill="#F9FAFB"/>
<path d="M1 0H11.75V11H1V0Z" fill="#F2F4F7"/>
<path d="M1 11C1 7.96243 3.40647 5.5 6.375 5.5C9.34353 5.5 11.75 7.96243 11.75 11H6.375H1Z" fill="#F2F4F7"/>
<path d="M11.75 0H22.5V11H11.75V0Z" fill="#F9FAFB"/>
<path d="M11.75 0C14.7185 0 17.125 2.46243 17.125 5.5C17.125 8.53757 14.7185 11 11.75 11V5.5V0Z" fill="#EAECF0"/>
<path d="M1 11H11.75V22H1V11Z" fill="#F9FAFB"/>
<path d="M1 11H11.75L1 22V11Z" fill="#EAECF0"/>
<path d="M11.75 11H22.5V22H11.75V11Z" fill="#EAECF0"/>
<path d="M1 22H22.5V44H1V22Z" fill="#F9FAFB"/>
<path d="M1 44V33H22.5V44H1Z" fill="#F2F4F7"/>
<path d="M22.5 0H44V22H22.5V0Z" fill="#F2F4F7"/>
<path d="M44 0V11H22.5V0L44 0Z" fill="#F9FAFB"/>
<path d="M22.5 22H44V44H22.5V22Z" fill="#EAECF0"/>
<path d="M22.5 44V33H44V44H22.5Z" fill="#EAECF0"/>
<path d="M1 0H11.75V11H1V0Z" fill="#FCFCFD"/>
<path d="M11.75 11H6.375V0L11.75 0V11Z" fill="#F9FAFB"/>
<path d="M11.75 0H22.5V11H11.75V0Z" fill="#FCFCFD"/>
<path d="M11.75 0H17.125V11H11.75V0Z" fill="#EAECF0"/>
<path d="M1 11H11.75V22H1V11Z" fill="#FCFCFD"/>
<path d="M11.75 11H22.5V22H11.75V11Z" fill="#EAECF0"/>
<path d="M22.5 22H17.125V11H22.5V22Z" fill="#FCFCFD"/>
<path d="M1 22H22.5V44H1V22Z" fill="#F9FAFB"/>
<path d="M22.5 22C22.5 28.0751 17.6871 33 11.75 33C5.81294 33 1 28.0751 1 22H11.75H22.5Z" fill="#F2F4F7"/>
<path d="M22.5 0H33.25V11H22.5V0Z" fill="#F2F4F7"/>
<path d="M33.25 11H22.5L33.25 0V11Z" fill="#FCFCFD"/>
<path d="M33.25 0H44V11H33.25V0Z" fill="#F2F4F7"/>
<path d="M33.25 0C36.2185 0 38.625 2.46243 38.625 5.5C38.625 8.53757 36.2185 11 33.25 11V5.5V0Z" fill="#F2F4F7"/>
<path d="M22.5 11H33.25V22H22.5V11Z" fill="#F2F4F7"/>
<path d="M22.5 11H33.25L22.5 22V11Z" fill="#FCFCFD"/>
<path d="M33.25 11H44V22H33.25V11Z" fill="#F2F4F7"/>
<path d="M22.5 22H44V44H22.5V22Z" fill="#F2F4F7"/>
<path d="M1 0H11.75V11H1V0Z" fill="#EAECF0"/>
<path d="M1 11V0L11.75 11H1Z" fill="#F2F4F7"/>
<path d="M11.75 0H22.5V11H11.75V0Z" fill="#F2F4F7"/>
<path d="M1 11H11.75V22H1V11Z" fill="#FCFCFD"/>
<path d="M11.75 11C11.75 14.0376 9.34353 16.5 6.375 16.5C3.40647 16.5 1 14.0376 1 11H6.375H11.75Z" fill="#EAECF0"/>
<path d="M11.75 11H22.5V22H11.75V11Z" fill="#EAECF0"/>
<path d="M1 22H22.5V44H1V22Z" fill="#F9FAFB"/>
<path d="M1 44V22L22.5 44H1Z" fill="#F2F4F7"/>
<path d="M22.5 0H33.25V11H22.5V0Z" fill="#F2F4F7"/>
<path d="M33.25 0H44V11H33.25V0Z" fill="#F2F4F7"/>
<path d="M22.5 11H33.25V22H22.5V11Z" fill="#F9FAFB"/>
<path d="M33.25 11V22L22.5 11H33.25Z" fill="#EAECF0"/>
<path d="M33.25 11H44V22H33.25V11Z" fill="#EAECF0"/>
<path d="M33.25 11H44L33.25 22V11Z" fill="#EAECF0"/>
<path d="M22.5 22H33.25V33H22.5V22Z" fill="#EAECF0"/>
<path d="M33.25 22V27.5H22.5V22H33.25Z" fill="#F9FAFB"/>
<path d="M33.25 22H44V33H33.25V22Z" fill="#EAECF0"/>
<path d="M33.25 22H38.625V33H33.25V22Z" fill="#F2F4F7"/>
<path d="M22.5 33H33.25V44H22.5V33Z" fill="#EAECF0"/>
<path d="M22.5 33H27.875V44H22.5V33Z" fill="#F2F4F7"/>
<path d="M33.25 33H44V44H33.25V33Z" fill="#F9FAFB"/>
<path d="M33.25 33C36.2185 33 38.625 35.4624 38.625 38.5C38.625 41.5376 36.2185 44 33.25 44V38.5V33Z" fill="#EAECF0"/>
<path d="M1 0H22.5V22H1V0Z" fill="#F2F4F7"/>
<path d="M1 0H11.75V22H1V0Z" fill="#EAECF0"/>
<path d="M1 22H11.75V33H1V22Z" fill="#EAECF0"/>
<path d="M1 33V27.5H11.75V33H1Z" fill="#F9FAFB"/>
<path d="M11.75 22H22.5V33H11.75V22Z" fill="#F2F4F7"/>
<path d="M22.5 33C19.5315 33 17.125 30.5376 17.125 27.5C17.125 24.4624 19.5315 22 22.5 22V27.5V33Z" fill="#EAECF0"/>
<path d="M1 33H11.75V44H1V33Z" fill="#F2F4F7"/>
<path d="M1 33H6.375V44H1V33Z" fill="#F9FAFB"/>
<path d="M11.75 33H22.5V44H11.75V33Z" fill="#F2F4F7"/>
<path d="M22.5 33V44L11.75 33H22.5Z" fill="#F9FAFB"/>
<path d="M22.5 0H44V22H22.5V0Z" fill="#EAECF0"/>
<path d="M22.5 22H44V44H22.5V22Z" fill="#F2F4F7"/>
<path d="M22.5 44V33H44V44H22.5Z" fill="#EAECF0"/>
<path d="M1 0H11.75V11H1V0Z" fill="#EAECF0"/>
<path d="M11.75 11C8.78147 11 6.375 8.53757 6.375 5.5C6.375 2.46243 8.78147 0 11.75 0V5.5V11Z" fill="#F2F4F7"/>
<path d="M11.75 0H22.5V11H11.75V0Z" fill="#FCFCFD"/>
<path d="M11.75 0H22.5L11.75 11V0Z" fill="#F2F4F7"/>
<path d="M1 11H11.75V22H1V11Z" fill="#FCFCFD"/>
<path d="M11.75 11V22L1 11H11.75Z" fill="#EAECF0"/>
<path d="M11.75 11H22.5V22H11.75V11Z" fill="#F9FAFB"/>
<path d="M22.5 22H17.125V11H22.5V22Z" fill="#EAECF0"/>
<path d="M1 22H11.75V33H1V22Z" fill="#F9FAFB"/>
<path d="M11.75 33H6.375V22H11.75V33Z" fill="#F2F4F7"/>
<path d="M11.75 22H22.5V33H11.75V22Z" fill="#F2F4F7"/>
<path d="M22.5 33C19.5315 33 17.125 30.5376 17.125 27.5C17.125 24.4624 19.5315 22 22.5 22V27.5V33Z" fill="#EAECF0"/>
<path d="M1 33H11.75V44H1V33Z" fill="#F2F4F7"/>
<path d="M11.75 44H1L11.75 33V44Z" fill="#FCFCFD"/>
<path d="M11.75 33H22.5V44H11.75V33Z" fill="#F9FAFB"/>
<path d="M22.5 33V38.5H11.75V33H22.5Z" fill="#F2F4F7"/>
<path d="M22.5 0H44V22H22.5V0Z" fill="#F9FAFB"/>
<path d="M44 0C44 6.07513 39.1871 11 33.25 11C27.3129 11 22.5 6.07513 22.5 0L33.25 0L44 0Z" fill="#F2F4F7"/>
<path d="M22.5 22H33.25V33H22.5V22Z" fill="#F2F4F7"/>
<path d="M22.5 33V27.5H33.25V33H22.5Z" fill="#F9FAFB"/>
<path d="M33.25 22H44V33H33.25V22Z" fill="#F2F4F7"/>
<path d="M33.25 33V22L44 33H33.25Z" fill="#F2F4F7"/>
<path d="M22.5 33H33.25V44H22.5V33Z" fill="#F2F4F7"/>
<path d="M33.25 33H44V44H33.25V33Z" fill="#EAECF0"/>
<path d="M44 44H38.625V33H44V44Z" fill="#F2F4F7"/>
</g>
<g clip-path="url(#clip0_7156_2267)">
<g filter="url(#filter1_i_7156_2267)">
<path fill-rule="evenodd" clip-rule="evenodd" d="M18.5117 12.2443C18.6935 12.0867 18.9261 12 19.1667 12H26.6667C27.2189 12 27.6667 12.4477 27.6667 13V17H30.6667C30.9319 17 31.1862 17.1054 31.3738 17.2929L34.3738 20.2929C34.5613 20.4804 34.6667 20.7348 34.6667 21V26C34.6667 26.5523 34.2189 27 33.6667 27H32.3298C32.5458 27.4546 32.6667 27.9632 32.6667 28.5C32.6667 30.433 31.0997 32 29.1667 32C27.2337 32 25.6667 30.433 25.6667 28.5C25.6667 27.9632 25.7875 27.4546 26.0035 27H19.3298C19.5458 27.4546 19.6667 27.9632 19.6667 28.5C19.6667 30.433 18.0997 32 16.1667 32C14.2337 32 12.6667 30.433 12.6667 28.5C12.6667 27.9632 12.7875 27.4546 13.0035 27H11.6667C11.1144 27 10.6667 26.5523 10.6667 26V19.5C10.6667 19.21 10.7926 18.9343 11.0117 18.7443L18.5117 12.2443ZM25.6667 25V14H19.5397L12.6667 19.9566V25H25.6667ZM27.6667 25V19H30.2524L32.6667 21.4142V25H27.6667ZM16.1667 27C15.3382 27 14.6667 27.6716 14.6667 28.5C14.6667 29.3284 15.3382 30 16.1667 30C16.9951 30 17.6667 29.3284 17.6667 28.5C17.6667 27.6716 16.9951 27 16.1667 27ZM29.1667 27C28.3382 27 27.6667 27.6716 27.6667 28.5C27.6667 29.3284 28.3382 30 29.1667 30C29.9951 30 30.6667 29.3284 30.6667 28.5C30.6667 27.6716 29.9951 27 29.1667 27ZM19.6667 16.5C20.2189 16.5 20.6667 16.9477 20.6667 17.5V21H22.6667C23.2189 21 23.6667 21.4477 23.6667 22C23.6667 22.5523 23.2189 23 22.6667 23H19.6667C19.1144 23 18.6667 22.5523 18.6667 22V17.5C18.6667 16.9477 19.1144 16.5 19.6667 16.5Z" fill="white"/>
</g>
</g>
</g>
<defs>
<filter id="filter0_ii_7156_2267" x="0.666664" y="-1" width="44" height="46" filterUnits="userSpaceOnUse" color-interpolation-filters="sRGB">
<feFlood flood-opacity="0" result="BackgroundImageFix"/>
<feBlend mode="normal" in="SourceGraphic" in2="BackgroundImageFix" result="shape"/>
<feColorMatrix in="SourceAlpha" type="matrix" values="0 0 0 0 0 0 0 0 0 0 0 0 0 0 0 0 0 0 127 0" result="hardAlpha"/>
<feOffset dy="-1"/>
<feGaussianBlur stdDeviation="1"/>
<feComposite in2="hardAlpha" operator="arithmetic" k2="-1" k3="1"/>
<feColorMatrix type="matrix" values="0 0 0 0 0 0 0 0 0 0 0 0 0 0 0 0 0 0 0.25 0"/>
<feBlend mode="normal" in2="shape" result="effect1_innerShadow_7156_2267"/>
<feColorMatrix in="SourceAlpha" type="matrix" values="0 0 0 0 0 0 0 0 0 0 0 0 0 0 0 0 0 0 127 0" result="hardAlpha"/>
<feOffset dy="1"/>
<feGaussianBlur stdDeviation="1.5"/>
<feComposite in2="hardAlpha" operator="arithmetic" k2="-1" k3="1"/>
<feColorMatrix type="matrix" values="0 0 0 0 1 0 0 0 0 1 0 0 0 0 1 0 0 0 0.25 0"/>
<feBlend mode="normal" in2="effect1_innerShadow_7156_2267" result="effect2_innerShadow_7156_2267"/>
</filter>
<filter id="filter1_i_7156_2267" x="10.6667" y="12" width="24" height="20" filterUnits="userSpaceOnUse" color-interpolation-filters="sRGB">
<feFlood flood-opacity="0" result="BackgroundImageFix"/>
<feBlend mode="normal" in="SourceGraphic" in2="BackgroundImageFix" result="shape"/>
<feColorMatrix in="SourceAlpha" type="matrix" values="0 0 0 0 0 0 0 0 0 0 0 0 0 0 0 0 0 0 127 0" result="hardAlpha"/>
<feOffset/>
<feGaussianBlur stdDeviation="0.5"/>
<feComposite in2="hardAlpha" operator="arithmetic" k2="-1" k3="1"/>
<feColorMatrix type="matrix" values="0 0 0 0 0 0 0 0 0 0 0 0 0 0 0 0 0 0 0.12 0"/>
<feBlend mode="normal" in2="shape" result="effect1_innerShadow_7156_2267"/>
</filter>
<clipPath id="clip0_7156_2267">
<rect width="24" height="24" fill="white" transform="translate(10.6667 10)"/>
</clipPath>
</defs>
</svg>
