<svg width="20" height="20" viewBox="0 0 20 20" fill="none" xmlns="http://www.w3.org/2000/svg">
<path d="M13.3333 13.3333V2.5H7.08333L0.833328 7.91667V13.3333H13.3333ZM13.3333 13.3333H19.1667V9.16667L16.6667 6.66667H13.3333V13.3333ZM6.66666 15.4167C6.66666 16.5673 5.73392 17.5 4.58333 17.5C3.43273 17.5 2.49999 16.5673 2.49999 15.4167C2.49999 14.2661 3.43273 13.3333 4.58333 13.3333C5.73392 13.3333 6.66666 14.2661 6.66666 15.4167ZM17.5 15.4167C17.5 16.5673 16.5673 17.5 15.4167 17.5C14.2661 17.5 13.3333 16.5673 13.3333 15.4167C13.3333 14.2661 14.2661 13.3333 15.4167 13.3333C16.5673 13.3333 17.5 14.2661 17.5 15.4167Z" stroke="#309C7A" stroke-width="1.5" stroke-linecap="round" stroke-linejoin="round"/>
</svg>
